<svg xmlns="http://www.w3.org/2000/svg" xmlns:xlink="http://www.w3.org/1999/xlink" width="350" height="500" viewBox="0 0 350 500"><rect width="100%" height="100%" fill="#DDDDDD"/><path d="M73.57 243.02L70.52 242.48Q70.87 240.04 71.88 238.19Q72.89 236.35 74.41 235.11Q75.92 233.88 77.89 233.26Q79.85 232.63 82.10 232.63L82.10 232.63Q84.45 232.63 86.35 233.30Q88.24 233.97 89.58 235.16Q90.92 236.35 91.63 237.94Q92.35 239.54 92.35 241.40L92.35 241.40Q92.35 243.02 91.99 244.25Q91.62 245.49 90.94 246.40Q90.26 247.32 89.25 247.96Q88.24 248.59 86.97 249.01L86.97 249.01Q90.02 249.98 91.53 251.95Q93.03 253.92 93.03 256.91L93.03 256.91Q93.03 259.45 92.09 261.40Q91.15 263.35 89.55 264.68Q87.96 266.00 85.85 266.69Q83.75 267.37 81.40 267.37L81.40 267.37Q78.84 267.37 76.93 266.78Q75.03 266.19 73.62 265.04Q72.21 263.89 71.22 262.22Q70.24 260.55 69.53 258.37L69.53 258.37L72.09 257.31Q73.10 256.89 73.99 257.09Q74.87 257.28 75.27 258.04L75.27 258.04Q75.69 258.86 76.19 259.66Q76.70 260.46 77.40 261.08Q78.11 261.70 79.06 262.09Q80.01 262.48 81.33 262.48L81.33 262.48Q82.81 262.48 83.91 262.00Q85.02 261.51 85.76 260.74Q86.50 259.96 86.86 259.01Q87.23 258.06 87.23 257.10L87.23 257.10Q87.23 255.88 86.97 254.88Q86.71 253.88 85.89 253.17Q85.07 252.47 83.53 252.07Q81.99 251.67 79.40 251.67L79.40 251.67L79.40 247.53Q81.54 247.51 82.95 247.13Q84.36 246.76 85.19 246.09Q86.03 245.42 86.36 244.48Q86.69 243.54 86.69 242.41L86.69 242.41Q86.69 240.01 85.35 238.77Q84.01 237.52 81.78 237.52L81.78 237.52Q80.74 237.52 79.87 237.82Q79.00 238.11 78.31 238.64Q77.62 239.17 77.15 239.87Q76.68 240.58 76.44 241.42L76.44 241.42Q76.04 242.50 75.40 242.86Q74.75 243.21 73.57 243.02L73.57 243.02ZM105.98 238.27L104.78 245.35Q105.91 245.11 106.94 245.01Q107.98 244.90 108.94 244.90L108.94 244.90Q111.62 244.90 113.66 245.70Q115.71 246.50 117.10 247.91Q118.48 249.32 119.19 251.21Q119.89 253.10 119.89 255.29L119.89 255.29Q119.89 257.99 118.94 260.22Q117.99 262.45 116.30 264.04Q114.61 265.63 112.29 266.50Q109.98 267.37 107.25 267.37L107.25 267.37Q105.65 267.37 104.22 267.04Q102.78 266.71 101.53 266.16Q100.27 265.60 99.20 264.89Q98.13 264.17 97.29 263.37L97.29 263.37L99.07 260.90Q99.64 260.11 100.55 260.11L100.55 260.11Q101.14 260.11 101.75 260.48Q102.36 260.86 103.15 261.30Q103.94 261.75 105.01 262.13Q106.07 262.50 107.58 262.50L107.58 262.50Q109.18 262.50 110.40 261.99Q111.62 261.47 112.43 260.54Q113.24 259.61 113.65 258.33Q114.06 257.05 114.06 255.55L114.06 255.55Q114.06 252.77 112.45 251.21Q110.84 249.65 107.70 249.65L107.70 249.65Q105.28 249.65 102.74 250.54L102.74 250.54L99.12 249.51L101.94 233.01L118.72 233.01L118.72 235.48Q118.72 236.72 117.94 237.50Q117.17 238.27 115.31 238.27L115.31 238.27L105.98 238.27ZM148.59 250L148.59 250Q148.59 254.44 147.63 257.72Q146.68 261.00 145.00 263.14Q143.32 265.27 141.03 266.32Q138.74 267.37 136.08 267.37L136.08 267.37Q133.43 267.37 131.16 266.32Q128.89 265.27 127.22 263.14Q125.56 261.00 124.62 257.72Q123.68 254.44 123.68 250L123.68 250Q123.68 245.53 124.62 242.27Q125.56 239.00 127.22 236.86Q128.89 234.72 131.16 233.68Q133.43 232.63 136.08 232.63L136.08 232.63Q138.74 232.63 141.03 233.68Q143.32 234.72 145.00 236.86Q146.68 239.00 147.63 242.27Q148.59 245.53 148.59 250ZM142.59 250L142.59 250Q142.59 246.31 142.05 243.89Q141.51 241.47 140.61 240.04Q139.70 238.60 138.53 238.03Q137.35 237.45 136.08 237.45L136.08 237.45Q134.84 237.45 133.68 238.03Q132.51 238.60 131.62 240.04Q130.73 241.47 130.20 243.89Q129.67 246.31 129.67 250L129.67 250Q129.67 253.69 130.20 256.11Q130.73 258.53 131.62 259.96Q132.51 261.40 133.68 261.97Q134.84 262.55 136.08 262.55L136.08 262.55Q137.35 262.55 138.53 261.97Q139.70 261.40 140.61 259.96Q141.51 258.53 142.05 256.11Q142.59 253.69 142.59 250ZM185.90 259.21L182.83 262.24L174.86 254.28L166.82 262.29L163.74 259.26L171.78 251.20L164.12 243.54L167.17 240.48L174.84 248.14L182.45 240.53L185.55 243.58L177.91 251.22L185.90 259.21ZM210.60 238.27L209.40 245.35Q210.53 245.11 211.57 245.01Q212.60 244.90 213.56 244.90L213.56 244.90Q216.24 244.90 218.29 245.70Q220.33 246.50 221.72 247.91Q223.10 249.32 223.81 251.21Q224.51 253.10 224.51 255.29L224.51 255.29Q224.51 257.99 223.56 260.22Q222.61 262.45 220.92 264.04Q219.23 265.63 216.91 266.50Q214.60 267.37 211.87 267.37L211.87 267.37Q210.27 267.37 208.84 267.04Q207.41 266.71 206.15 266.16Q204.89 265.60 203.82 264.89Q202.75 264.17 201.91 263.37L201.91 263.37L203.69 260.90Q204.26 260.11 205.17 260.11L205.17 260.11Q205.76 260.11 206.37 260.48Q206.98 260.86 207.77 261.30Q208.56 261.75 209.63 262.13Q210.70 262.50 212.20 262.50L212.20 262.50Q213.80 262.50 215.02 261.99Q216.24 261.47 217.05 260.54Q217.86 259.61 218.28 258.33Q218.69 257.05 218.69 255.55L218.69 255.55Q218.69 252.77 217.08 251.21Q215.47 249.65 212.32 249.65L212.32 249.65Q209.90 249.65 207.36 250.54L207.36 250.54L203.74 249.51L206.56 233.01L223.34 233.01L223.34 235.48Q223.34 236.72 222.56 237.50Q221.79 238.27 219.93 238.27L219.93 238.27L210.60 238.27ZM253.21 250L253.21 250Q253.21 254.44 252.26 257.72Q251.30 261.00 249.62 263.14Q247.94 265.27 245.65 266.32Q243.36 267.37 240.71 267.37L240.71 267.37Q238.05 267.37 235.78 266.32Q233.51 265.27 231.85 263.14Q230.18 261.00 229.24 257.72Q228.30 254.44 228.30 250L228.30 250Q228.30 245.53 229.24 242.27Q230.18 239.00 231.85 236.86Q233.51 234.72 235.78 233.68Q238.05 232.63 240.71 232.63L240.71 232.63Q243.36 232.63 245.65 233.68Q247.94 234.72 249.62 236.86Q251.30 239.00 252.26 242.27Q253.21 245.53 253.21 250ZM247.22 250L247.22 250Q247.22 246.31 246.67 243.89Q246.13 241.47 245.23 240.04Q244.32 238.60 243.15 238.03Q241.97 237.45 240.71 237.45L240.71 237.45Q239.46 237.45 238.30 238.03Q237.13 238.60 236.24 240.04Q235.35 241.47 234.82 243.89Q234.29 246.31 234.29 250L234.29 250Q234.29 253.69 234.82 256.11Q235.35 258.53 236.24 259.96Q237.13 261.40 238.30 261.97Q239.46 262.55 240.71 262.55L240.71 262.55Q241.97 262.55 243.15 261.97Q244.32 261.40 245.23 259.96Q246.13 258.53 246.67 256.11Q247.22 253.69 247.22 250ZM280.47 250L280.47 250Q280.47 254.44 279.52 257.72Q278.56 261.00 276.88 263.14Q275.20 265.27 272.91 266.32Q270.62 267.37 267.97 267.37L267.97 267.37Q265.31 267.37 263.04 266.32Q260.77 265.27 259.11 263.14Q257.44 261.00 256.50 257.72Q255.56 254.44 255.56 250L255.56 250Q255.56 245.53 256.50 242.27Q257.44 239.00 259.11 236.86Q260.77 234.72 263.04 233.68Q265.31 232.63 267.97 232.63L267.97 232.63Q270.62 232.63 272.91 233.68Q275.20 234.72 276.88 236.86Q278.56 239.00 279.52 242.27Q280.47 245.53 280.47 250ZM274.48 250L274.48 250Q274.48 246.31 273.93 243.89Q273.39 241.47 272.49 240.04Q271.58 238.60 270.41 238.03Q269.23 237.45 267.97 237.45L267.97 237.45Q266.72 237.45 265.56 238.03Q264.39 238.60 263.50 240.04Q262.61 241.47 262.08 243.89Q261.55 246.31 261.55 250L261.55 250Q261.55 253.69 262.08 256.11Q262.61 258.53 263.50 259.96Q264.39 261.40 265.56 261.97Q266.72 262.55 267.97 262.55L267.97 262.55Q269.23 262.55 270.41 261.97Q271.58 261.40 272.49 259.96Q273.39 258.53 273.93 256.11Q274.48 253.69 274.48 250Z" fill="#999999"/></svg>